<svg width="116" height="136" viewBox="0 0 116 136" fill="none" xmlns="http://www.w3.org/2000/svg">
<mask id="path-1-outside-1_88_1342" maskUnits="userSpaceOnUse" x="0" y="0" width="116" height="136" fill="black">
<rect fill="white" width="116" height="136"/>
<path fill-rule="evenodd" clip-rule="evenodd" d="M2 56.6053C2 26.4076 27.2347 2 57.7587 2C88.3688 2 113.604 26.4076 113.604 56.6053C113.604 71.8224 108.069 85.9497 98.9605 97.9237C88.9116 111.132 76.5259 122.64 62.5846 131.673C59.3938 133.761 56.5142 133.918 53.0123 131.673C38.9915 122.64 26.6059 111.132 16.643 97.9237C7.52755 85.9497 2 71.8224 2 56.6053ZM39.3822 58.3056C39.3822 68.4218 47.6371 76.3783 57.7588 76.3783C67.8871 76.3783 76.2215 68.4218 76.2215 58.3056C76.2215 48.2681 67.8871 39.9244 57.7588 39.9244C47.6371 39.9244 39.3822 48.2681 39.3822 58.3056Z"/>
</mask>
<path fill-rule="evenodd" clip-rule="evenodd" d="M2 56.6053C2 26.4076 27.2347 2 57.7587 2C88.3688 2 113.604 26.4076 113.604 56.6053C113.604 71.8224 108.069 85.9497 98.9605 97.9237C88.9116 111.132 76.5259 122.64 62.5846 131.673C59.3938 133.761 56.5142 133.918 53.0123 131.673C38.9915 122.64 26.6059 111.132 16.643 97.9237C7.52755 85.9497 2 71.8224 2 56.6053ZM39.3822 58.3056C39.3822 68.4218 47.6371 76.3783 57.7588 76.3783C67.8871 76.3783 76.2215 68.4218 76.2215 58.3056C76.2215 48.2681 67.8871 39.9244 57.7588 39.9244C47.6371 39.9244 39.3822 48.2681 39.3822 58.3056Z" fill="#3686FF"/>
<path d="M98.9605 97.9237L100.552 99.1347L100.552 99.1346L98.9605 97.9237ZM62.5846 131.673L61.497 129.994L61.4896 129.999L62.5846 131.673ZM53.0123 131.673L51.9291 133.354L51.9329 133.357L53.0123 131.673ZM16.643 97.9237L18.2398 96.7193L18.2344 96.7123L16.643 97.9237ZM57.7587 0C26.1771 0 0 25.2567 0 56.6053H4C4 27.5586 28.2923 4 57.7587 4V0ZM115.604 56.6053C115.604 25.2547 89.4243 0 57.7587 0V4C87.3132 4 111.604 27.5606 111.604 56.6053H115.604ZM100.552 99.1346C109.884 86.8677 115.604 72.3245 115.604 56.6053H111.604C111.604 71.3202 106.255 85.0316 97.3687 96.7128L100.552 99.1346ZM63.6721 133.351C77.8083 124.192 90.3643 112.526 100.552 99.1347L97.3688 96.7127C87.4589 109.738 75.2435 121.088 61.497 129.994L63.6721 133.351ZM51.9329 133.357C53.9123 134.626 55.888 135.324 57.9404 135.298C59.9893 135.272 61.8749 134.527 63.6796 133.347L61.4896 129.999C60.1035 130.906 58.9539 131.284 57.8898 131.298C56.8293 131.311 55.6142 130.965 54.0918 129.989L51.9329 133.357ZM15.0463 99.1281C25.1513 112.525 37.711 124.194 51.9291 133.354L54.0955 129.992C40.2721 121.086 28.0604 109.739 18.2397 96.7193L15.0463 99.1281ZM0 56.6053C0 72.324 5.71268 86.8675 15.0517 99.1352L18.2344 96.7123C9.34241 85.0318 4 71.3207 4 56.6053H0ZM57.7588 74.3783C48.6983 74.3783 41.3822 67.2744 41.3822 58.3056H37.3822C37.3822 69.5693 46.5759 78.3783 57.7588 78.3783V74.3783ZM74.2215 58.3056C74.2215 67.2628 66.8377 74.3783 57.7588 74.3783V78.3783C68.9365 78.3783 78.2215 69.5808 78.2215 58.3056H74.2215ZM57.7588 41.9244C66.7876 41.9244 74.2215 49.3778 74.2215 58.3056H78.2215C78.2215 47.1585 68.9866 37.9244 57.7588 37.9244V41.9244ZM41.3822 58.3056C41.3822 49.3661 48.7482 41.9244 57.7588 41.9244V37.9244C46.5259 37.9244 37.3822 47.1702 37.3822 58.3056H41.3822Z" fill="white" mask="url(#path-1-outside-1_88_1342)"/>
<circle cx="57.8027" cy="57.9076" r="35.5776" fill="white"/>
<path fill-rule="evenodd" clip-rule="evenodd" d="M53.6273 71.3798L68.2713 52.4424C69.0672 51.4212 69.3501 50.2405 69.0849 49.0383C68.8549 47.9454 68.1829 46.9063 67.1748 46.118L64.7164 44.1651C62.5764 42.4631 59.9235 42.6422 58.4025 44.5951L56.7577 46.7289C56.5455 46.9959 56.5986 47.39 56.8639 47.605C56.8639 47.605 61.0201 50.9374 61.1085 51.0091C61.3915 51.2778 61.6037 51.6362 61.6568 52.0662C61.7452 52.9082 61.1615 53.6965 60.2949 53.804C59.8882 53.8578 59.4991 53.7324 59.2161 53.4995L54.8477 50.0237C54.6354 49.8643 54.3171 49.8983 54.1402 50.1133L43.7586 63.5505C43.0865 64.3925 42.8566 65.4854 43.0865 66.5425L44.4129 72.2936C44.4837 72.5981 44.749 72.8131 45.0673 72.8131L50.9037 72.7415C51.9648 72.7236 52.9553 72.2398 53.6273 71.3798ZM61.7995 69.5888H71.3163C72.2448 69.5888 73 70.3538 73 71.2944C73 72.2368 72.2448 73 71.3163 73H61.7995C60.871 73 60.1158 72.2368 60.1158 71.2944C60.1158 70.3538 60.871 69.5888 61.7995 69.5888Z" fill="#3686FF"/>
</svg>
