<svg width="117" height="136" viewBox="0 0 117 136" fill="none" xmlns="http://www.w3.org/2000/svg">
<mask id="path-1-outside-1_10_1798" maskUnits="userSpaceOnUse" x="0.515137" y="0" width="116" height="136" fill="black">
<rect fill="white" x="0.515137" width="116" height="136"/>
<path fill-rule="evenodd" clip-rule="evenodd" d="M2.51514 56.6053C2.51514 26.4076 27.7499 2 58.2739 2C88.8839 2 114.119 26.4076 114.119 56.6053C114.119 71.8224 108.584 85.9497 99.4756 97.9237C89.4267 111.132 77.041 122.64 63.0997 131.673C59.909 133.761 57.0293 133.918 53.5275 131.673C39.5067 122.64 27.121 111.132 17.1582 97.9237C8.04268 85.9497 2.51514 71.8224 2.51514 56.6053ZM39.8973 58.3056C39.8973 68.4218 48.1522 76.3783 58.2739 76.3783C68.4022 76.3783 76.7365 68.4218 76.7365 58.3056C76.7365 48.2681 68.4022 39.9244 58.2739 39.9244C48.1522 39.9244 39.8973 48.2681 39.8973 58.3056Z"/>
</mask>
<path fill-rule="evenodd" clip-rule="evenodd" d="M2.51514 56.6053C2.51514 26.4076 27.7499 2 58.2739 2C88.8839 2 114.119 26.4076 114.119 56.6053C114.119 71.8224 108.584 85.9497 99.4756 97.9237C89.4267 111.132 77.041 122.64 63.0997 131.673C59.909 133.761 57.0293 133.918 53.5275 131.673C39.5067 122.64 27.121 111.132 17.1582 97.9237C8.04268 85.9497 2.51514 71.8224 2.51514 56.6053ZM39.8973 58.3056C39.8973 68.4218 48.1522 76.3783 58.2739 76.3783C68.4022 76.3783 76.7365 68.4218 76.7365 58.3056C76.7365 48.2681 68.4022 39.9244 58.2739 39.9244C48.1522 39.9244 39.8973 48.2681 39.8973 58.3056Z" fill="#9A3EEB"/>
<path d="M99.4756 97.9237L101.067 99.1347L101.067 99.1346L99.4756 97.9237ZM63.0997 131.673L62.0122 129.994L62.0047 129.999L63.0997 131.673ZM53.5275 131.673L52.4443 133.354L52.448 133.357L53.5275 131.673ZM17.1582 97.9237L18.7549 96.7193L18.7495 96.7123L17.1582 97.9237ZM58.2739 0C26.6923 0 0.515137 25.2567 0.515137 56.6053H4.51514C4.51514 27.5586 28.8075 4 58.2739 4V0ZM116.119 56.6053C116.119 25.2547 89.9395 0 58.2739 0V4C87.8283 4 112.119 27.5606 112.119 56.6053H116.119ZM101.067 99.1346C110.399 86.8677 116.119 72.3245 116.119 56.6053H112.119C112.119 71.3202 106.77 85.0316 97.8838 96.7128L101.067 99.1346ZM64.1872 133.351C78.3234 124.192 90.8794 112.526 101.067 99.1347L97.8839 96.7127C87.9741 109.738 75.7587 121.088 62.0122 129.994L64.1872 133.351ZM52.448 133.357C54.4275 134.626 56.4031 135.324 58.4556 135.298C60.5044 135.272 62.39 134.527 64.1947 133.347L62.0047 129.999C60.6187 130.906 59.4691 131.284 58.4049 131.298C57.3444 131.311 56.1293 130.965 54.6069 129.989L52.448 133.357ZM15.5615 99.1281C25.6664 112.525 38.2261 124.194 52.4443 133.354L54.6106 129.992C40.7872 121.086 28.5756 109.739 18.7549 96.7193L15.5615 99.1281ZM0.515137 56.6053C0.515137 72.324 6.22782 86.8675 15.5668 99.1352L18.7495 96.7123C9.85755 85.0318 4.51514 71.3207 4.51514 56.6053H0.515137ZM58.2739 74.3783C49.2134 74.3783 41.8973 67.2744 41.8973 58.3056H37.8973C37.8973 69.5693 47.091 78.3783 58.2739 78.3783V74.3783ZM74.7365 58.3056C74.7365 67.2628 67.3528 74.3783 58.2739 74.3783V78.3783C69.4516 78.3783 78.7365 69.5808 78.7365 58.3056H74.7365ZM58.2739 41.9244C67.3027 41.9244 74.7365 49.3778 74.7365 58.3056H78.7365C78.7365 47.1585 69.5017 37.9244 58.2739 37.9244V41.9244ZM41.8973 58.3056C41.8973 49.3661 49.2633 41.9244 58.2739 41.9244V37.9244C47.041 37.9244 37.8973 47.1702 37.8973 58.3056H41.8973Z" fill="white" mask="url(#path-1-outside-1_10_1798)"/>
<circle cx="58.3178" cy="57.9076" r="35.5776" fill="white"/>
<path d="M73.6707 73.1552C71.0215 73.1552 68.3722 72.2594 66.047 70.6203C61.3965 73.8795 55.4499 73.8795 50.7994 70.6203C48.4742 72.2594 45.8249 73.1552 43.1757 73.1552H39.3638V76.9671H43.1757C45.7868 76.9671 48.3979 76.3 50.7994 75.0612C55.5643 77.5389 61.2821 77.5389 66.047 75.0612C68.4484 76.3 71.0405 76.9671 73.6707 76.9671H77.4826V73.1552M73.6707 65.5315C71.0215 65.5315 68.3722 64.6357 66.047 62.9966C61.3965 66.2557 55.4499 66.2557 50.7994 62.9966C48.4742 64.6357 45.8249 65.5315 43.1757 65.5315H39.3638V69.3433H43.1757C45.7868 69.3433 48.3979 68.6763 50.7994 67.4374C55.5643 69.9151 61.2821 69.9151 66.047 67.4374C68.4484 68.6763 71.0405 69.3433 73.6707 69.3433H77.4826V65.5315M77.4826 38.8483H39.3638V42.6602H46.9875V65.5315H69.8588V42.6602H77.4826M52.7054 42.6602H56.5173V54.0958H52.7054M60.3291 50.2839H64.141V61.7196H60.3291V50.2839Z" fill="#9A3EEB"/>
</svg>
