<svg width="117" height="136" viewBox="0 0 117 136" fill="none" xmlns="http://www.w3.org/2000/svg">
<mask id="path-1-outside-1_10_1799" maskUnits="userSpaceOnUse" x="0.825195" y="0" width="116" height="136" fill="black">
<rect fill="white" x="0.825195" width="116" height="136"/>
<path fill-rule="evenodd" clip-rule="evenodd" d="M2.8252 56.6053C2.8252 26.4076 28.0599 2 58.5839 2C89.194 2 114.429 26.4076 114.429 56.6053C114.429 71.8224 108.895 85.9497 99.7857 97.9237C89.7368 111.132 77.3511 122.64 63.4098 131.673C60.219 133.761 57.3394 133.918 53.8375 131.673C39.8167 122.64 27.4311 111.132 17.4682 97.9237C8.35274 85.9497 2.8252 71.8224 2.8252 56.6053ZM40.2074 58.3056C40.2074 68.4218 48.4623 76.3783 58.584 76.3783C68.7123 76.3783 77.0467 68.4218 77.0467 58.3056C77.0467 48.2681 68.7123 39.9244 58.584 39.9244C48.4623 39.9244 40.2074 48.2681 40.2074 58.3056Z"/>
</mask>
<path fill-rule="evenodd" clip-rule="evenodd" d="M2.8252 56.6053C2.8252 26.4076 28.0599 2 58.5839 2C89.194 2 114.429 26.4076 114.429 56.6053C114.429 71.8224 108.895 85.9497 99.7857 97.9237C89.7368 111.132 77.3511 122.64 63.4098 131.673C60.219 133.761 57.3394 133.918 53.8375 131.673C39.8167 122.64 27.4311 111.132 17.4682 97.9237C8.35274 85.9497 2.8252 71.8224 2.8252 56.6053ZM40.2074 58.3056C40.2074 68.4218 48.4623 76.3783 58.584 76.3783C68.7123 76.3783 77.0467 68.4218 77.0467 58.3056C77.0467 48.2681 68.7123 39.9244 58.584 39.9244C48.4623 39.9244 40.2074 48.2681 40.2074 58.3056Z" fill="#3E4CEB"/>
<path d="M99.7857 97.9237L101.377 99.1347L101.377 99.1346L99.7857 97.9237ZM63.4098 131.673L62.3222 129.994L62.3148 129.999L63.4098 131.673ZM53.8375 131.673L52.7543 133.354L52.7581 133.357L53.8375 131.673ZM17.4682 97.9237L19.065 96.7193L19.0596 96.7123L17.4682 97.9237ZM58.5839 0C27.0023 0 0.825195 25.2567 0.825195 56.6053H4.8252C4.8252 27.5586 29.1175 4 58.5839 4V0ZM116.429 56.6053C116.429 25.2547 90.2495 0 58.5839 0V4C88.1384 4 112.429 27.5606 112.429 56.6053H116.429ZM101.377 99.1346C110.709 86.8677 116.429 72.3245 116.429 56.6053H112.429C112.429 71.3202 107.08 85.0316 98.1939 96.7128L101.377 99.1346ZM64.4973 133.351C78.6335 124.192 91.1895 112.526 101.377 99.1347L98.194 96.7127C88.2841 109.738 76.0687 121.088 62.3222 129.994L64.4973 133.351ZM52.7581 133.357C54.7375 134.626 56.7132 135.324 58.7656 135.298C60.8145 135.272 62.7 134.527 64.5047 133.347L62.3148 129.999C60.9287 130.906 59.7791 131.284 58.715 131.298C57.6545 131.311 56.4394 130.965 54.917 129.989L52.7581 133.357ZM15.8715 99.1281C25.9765 112.525 38.5362 124.194 52.7543 133.354L54.9207 129.992C41.0973 121.086 28.8856 109.739 19.0649 96.7193L15.8715 99.1281ZM0.825195 56.6053C0.825195 72.324 6.53788 86.8675 15.8769 99.1352L19.0596 96.7123C10.1676 85.0318 4.8252 71.3207 4.8252 56.6053H0.825195ZM58.584 74.3783C49.5235 74.3783 42.2074 67.2744 42.2074 58.3056H38.2074C38.2074 69.5693 47.4011 78.3783 58.584 78.3783V74.3783ZM75.0467 58.3056C75.0467 67.2628 67.6629 74.3783 58.584 74.3783V78.3783C69.7617 78.3783 79.0467 69.5808 79.0467 58.3056H75.0467ZM58.584 41.9244C67.6128 41.9244 75.0467 49.3778 75.0467 58.3056H79.0467C79.0467 47.1585 69.8118 37.9244 58.584 37.9244V41.9244ZM42.2074 58.3056C42.2074 49.3661 49.5734 41.9244 58.584 41.9244V37.9244C47.3511 37.9244 38.2074 47.1702 38.2074 58.3056H42.2074Z" fill="white" mask="url(#path-1-outside-1_10_1799)"/>
<circle cx="58.6279" cy="57.9076" r="35.5776" fill="white"/>
<path d="M58.7331 74.8494C65.7504 74.8494 71.4394 69.1603 71.4394 62.1431C71.4394 50.2839 58.7331 40.9659 58.7331 40.9659C58.7331 40.9659 46.0269 50.2839 46.0269 62.1431C46.0269 69.1603 51.7159 74.8494 58.7331 74.8494Z" stroke="#3E4CEB" stroke-width="5.08251" stroke-linecap="round" stroke-linejoin="round"/>
<path d="M46.0269 62.1431C46.0269 69.1604 51.7159 74.8494 58.7331 74.8494C65.7504 74.8494 71.4394 69.1604 71.4394 62.1431C71.4394 62.1431 63.8156 64.6844 58.7331 62.1431C53.6506 59.6019 46.0269 62.1431 46.0269 62.1431Z" fill="#3E4CEB" stroke="#3E4CEB" stroke-width="5.08251" stroke-linejoin="round"/>
</svg>
