<svg width="64" height="64" viewBox="0 0 64 64" fill="none" xmlns="http://www.w3.org/2000/svg">
<rect width="64" height="64" rx="32" fill="#FFE0CC"/>
<rect x="6" y="6" width="52" height="52" rx="26" fill="#FFC183"/>
<rect x="12" y="12" width="40" height="40" rx="20" fill="#FF7C0A"/>
<path d="M36.1664 25.3333L38.6664 27.8333M37.4164 26.5833L30.7497 33.25M28.8964 31.4033L32.5964 35.1033C32.6713 35.1782 32.7307 35.2672 32.7712 35.365C32.8118 35.4629 32.8326 35.5678 32.8326 35.6737C32.8326 35.7797 32.8118 35.8846 32.7712 35.9824C32.7307 36.0803 32.6713 36.1692 32.5964 36.2442L30.343 38.4975C29.6998 39.1335 28.8309 39.4891 27.9262 39.4865C27.0216 39.484 26.1548 39.1234 25.5152 38.4837C24.8755 37.844 24.5151 36.9771 24.5127 36.0724C24.5103 35.1678 24.866 34.299 25.5022 33.6558L27.7555 31.4033C27.8304 31.3283 27.9194 31.2688 28.0174 31.2281C28.1153 31.1875 28.2203 31.1666 28.3264 31.1666C28.4324 31.1666 28.5374 31.1875 28.6353 31.2281C28.7333 31.2688 28.8223 31.3283 28.8972 31.4033H28.8964Z" stroke="white" stroke-width="2" stroke-linecap="round" stroke-linejoin="round"/>
</svg>
