<svg width="116" height="136" viewBox="0 0 116 136" fill="none" xmlns="http://www.w3.org/2000/svg">
<mask id="path-1-outside-1_10_1796" maskUnits="userSpaceOnUse" x="0" y="0" width="116" height="136" fill="black">
<rect fill="white" width="116" height="136"/>
<path fill-rule="evenodd" clip-rule="evenodd" d="M2 56.6053C2 26.4076 27.2347 2 57.7587 2C88.3688 2 113.604 26.4076 113.604 56.6053C113.604 71.8224 108.069 85.9497 98.9605 97.9237C88.9116 111.132 76.5259 122.64 62.5846 131.673C59.3938 133.761 56.5142 133.918 53.0123 131.673C38.9915 122.64 26.6059 111.132 16.643 97.9237C7.52755 85.9497 2 71.8224 2 56.6053ZM39.3821 58.3056C39.3821 68.4218 47.637 76.3783 57.7587 76.3783C67.887 76.3783 76.2214 68.4218 76.2214 58.3056C76.2214 48.2681 67.887 39.9244 57.7587 39.9244C47.637 39.9244 39.3821 48.2681 39.3821 58.3056Z"/>
</mask>
<path fill-rule="evenodd" clip-rule="evenodd" d="M2 56.6053C2 26.4076 27.2347 2 57.7587 2C88.3688 2 113.604 26.4076 113.604 56.6053C113.604 71.8224 108.069 85.9497 98.9605 97.9237C88.9116 111.132 76.5259 122.64 62.5846 131.673C59.3938 133.761 56.5142 133.918 53.0123 131.673C38.9915 122.64 26.6059 111.132 16.643 97.9237C7.52755 85.9497 2 71.8224 2 56.6053ZM39.3821 58.3056C39.3821 68.4218 47.637 76.3783 57.7587 76.3783C67.887 76.3783 76.2214 68.4218 76.2214 58.3056C76.2214 48.2681 67.887 39.9244 57.7587 39.9244C47.637 39.9244 39.3821 48.2681 39.3821 58.3056Z" fill="#EB3E3E"/>
<path d="M98.9605 97.9237L100.552 99.1347L100.552 99.1346L98.9605 97.9237ZM62.5846 131.673L61.497 129.994L61.4896 129.999L62.5846 131.673ZM53.0123 131.673L51.9291 133.354L51.9329 133.357L53.0123 131.673ZM16.643 97.9237L18.2398 96.7193L18.2344 96.7123L16.643 97.9237ZM57.7587 0C26.1771 0 0 25.2567 0 56.6053H4C4 27.5586 28.2923 4 57.7587 4V0ZM115.604 56.6053C115.604 25.2547 89.4243 0 57.7587 0V4C87.3132 4 111.604 27.5606 111.604 56.6053H115.604ZM100.552 99.1346C109.884 86.8677 115.604 72.3245 115.604 56.6053H111.604C111.604 71.3202 106.255 85.0316 97.3687 96.7128L100.552 99.1346ZM63.6721 133.351C77.8083 124.192 90.3643 112.526 100.552 99.1347L97.3688 96.7127C87.4589 109.738 75.2435 121.088 61.497 129.994L63.6721 133.351ZM51.9329 133.357C53.9123 134.626 55.888 135.324 57.9404 135.298C59.9893 135.272 61.8749 134.527 63.6796 133.347L61.4896 129.999C60.1035 130.906 58.9539 131.284 57.8898 131.298C56.8293 131.311 55.6142 130.965 54.0918 129.989L51.9329 133.357ZM15.0463 99.1281C25.1513 112.525 37.711 124.194 51.9291 133.354L54.0955 129.992C40.2721 121.086 28.0604 109.739 18.2397 96.7193L15.0463 99.1281ZM0 56.6053C0 72.324 5.71268 86.8675 15.0517 99.1352L18.2344 96.7123C9.34241 85.0318 4 71.3207 4 56.6053H0ZM57.7587 74.3783C48.6982 74.3783 41.3821 67.2744 41.3821 58.3056H37.3821C37.3821 69.5693 46.5758 78.3783 57.7587 78.3783V74.3783ZM74.2214 58.3056C74.2214 67.2628 66.8377 74.3783 57.7587 74.3783V78.3783C68.9364 78.3783 78.2214 69.5808 78.2214 58.3056H74.2214ZM57.7587 41.9244C66.7875 41.9244 74.2214 49.3778 74.2214 58.3056H78.2214C78.2214 47.1585 68.9865 37.9244 57.7587 37.9244V41.9244ZM41.3821 58.3056C41.3821 49.3661 48.7482 41.9244 57.7587 41.9244V37.9244C46.5258 37.9244 37.3821 47.1702 37.3821 58.3056H41.3821Z" fill="white" mask="url(#path-1-outside-1_10_1796)"/>
<circle cx="57.8027" cy="57.9076" r="35.5776" fill="white"/>
<path d="M72.6261 71.2704V74.8494C72.6261 75.9727 72.1799 77.05 71.3856 77.8443C70.5913 78.6386 69.514 79.0848 68.3907 79.0848H47.2136C46.0903 79.0848 45.013 78.6386 44.2187 77.8443C43.4244 77.05 42.9781 75.9727 42.9781 74.8494V67.0138C42.004 66.6326 40.7545 66.3785 38.7427 66.3785C38.1811 66.3785 37.6424 66.1554 37.2453 65.7583C36.8481 65.3611 36.625 64.8225 36.625 64.2608C36.625 63.6992 36.8481 63.1605 37.2453 62.7634C37.6424 62.3662 38.1811 62.1431 38.7427 62.1431C40.4792 62.1431 41.8558 62.3125 42.9781 62.5878V58.543C42.004 58.1618 40.7545 57.9077 38.7427 57.9077C38.1811 57.9077 37.6424 57.6845 37.2453 57.2874C36.8481 56.8903 36.625 56.3516 36.625 55.79C36.625 55.2283 36.8481 54.6896 37.2453 54.2925C37.6424 53.8954 38.1811 53.6722 38.7427 53.6722C40.4792 53.6722 41.8558 53.8417 42.9781 54.117V50.0721C42.004 49.6909 40.7545 49.4368 38.7427 49.4368C38.1811 49.4368 37.6424 49.2137 37.2453 48.8165C36.8481 48.4194 36.625 47.8807 36.625 47.3191C36.625 46.7574 36.8481 46.2188 37.2453 45.8216C37.6424 45.4245 38.1811 45.2014 38.7427 45.2014C40.4792 45.2014 41.8558 45.3708 42.9781 45.6461V40.966C42.9781 39.8427 43.4244 38.7654 44.2187 37.9711C45.013 37.1768 46.0903 36.7305 47.2136 36.7305H68.3907C69.514 36.7305 70.5913 37.1768 71.3856 37.9711C72.1799 38.7654 72.6261 39.8427 72.6261 40.966V45.5402C76.3957 46.1967 78.0051 47.5944 78.3651 47.9332C79.191 48.7591 79.191 50.1145 78.3651 50.9404C77.5392 51.7663 76.438 51.7451 75.358 50.9404C75.358 50.9404 73.1556 49.4368 68.3907 49.4368C65.7224 49.4368 63.9647 50.3051 61.9317 51.3428C59.7293 52.4228 57.2515 53.6722 53.5667 53.6722C52.8043 53.6722 52.1055 53.6722 51.449 53.5875V49.3309C52.0843 49.4368 52.7832 49.4368 53.5667 49.4368C56.235 49.4368 57.9927 48.5685 60.0257 47.552C62.2282 46.4508 64.7271 45.2014 68.3907 45.2014V40.966H47.2136V74.8494H68.3907V70.6139C71.5673 70.6139 72.5626 71.2281 72.6261 71.2704ZM68.3907 53.6722C64.7271 53.6722 62.2282 54.9217 60.0257 56.0229C57.9927 57.0394 56.235 57.9077 53.5667 57.9077C52.7832 57.9077 52.0843 57.9077 51.449 57.8018V62.0584C52.1055 62.1431 52.8043 62.1431 53.5667 62.1431C57.2515 62.1431 59.7293 60.8936 61.9317 59.8136C63.9647 58.7971 65.7224 57.9077 68.3907 57.9077C73.1556 57.9077 75.358 59.4112 75.358 59.4112C76.438 60.2371 77.5392 60.2371 78.3651 59.4112C79.191 58.5853 79.191 57.2512 78.3651 56.4041C77.9204 55.9594 75.2733 53.6722 68.3907 53.6722ZM68.3907 62.1431C64.7271 62.1431 62.2282 63.3925 60.0257 64.4938C57.9927 65.5103 56.235 66.3785 53.5667 66.3785C52.7832 66.3785 52.0843 66.3785 51.449 66.2726V70.5292C52.1055 70.6139 52.8043 70.6139 53.5667 70.6139C57.2515 70.6139 59.7293 69.3645 61.9317 68.2845C63.9647 67.268 65.7224 66.3785 68.3907 66.3785C73.1556 66.3785 75.358 67.8821 75.358 67.8821C76.438 68.708 77.5392 68.708 78.3651 67.8821C79.191 67.0562 79.191 65.722 78.3651 64.8749C77.9204 64.4302 75.2733 62.1431 68.3907 62.1431Z" fill="#EB3E3E"/>
</svg>
