<svg width="116" height="136" viewBox="0 0 116 136" fill="none" xmlns="http://www.w3.org/2000/svg">
<mask id="path-1-outside-1_10_1797" maskUnits="userSpaceOnUse" x="0.205078" y="0" width="116" height="136" fill="black">
<rect fill="white" x="0.205078" width="116" height="136"/>
<path fill-rule="evenodd" clip-rule="evenodd" d="M2.20508 56.6053C2.20508 26.4076 27.4398 2 57.9638 2C88.5738 2 113.809 26.4076 113.809 56.6053C113.809 71.8224 108.274 85.9497 99.1656 97.9237C89.1167 111.132 76.731 122.64 62.7896 131.673C59.5989 133.761 56.7193 133.918 53.2174 131.673C39.1966 122.64 26.8109 111.132 16.8481 97.9237C7.73263 85.9497 2.20508 71.8224 2.20508 56.6053ZM39.5865 58.3056C39.5865 68.4218 47.8414 76.3783 57.9631 76.3783C68.0914 76.3783 76.4258 68.4218 76.4258 58.3056C76.4258 48.2681 68.0914 39.9244 57.9631 39.9244C47.8414 39.9244 39.5865 48.2681 39.5865 58.3056Z"/>
</mask>
<path fill-rule="evenodd" clip-rule="evenodd" d="M2.20508 56.6053C2.20508 26.4076 27.4398 2 57.9638 2C88.5738 2 113.809 26.4076 113.809 56.6053C113.809 71.8224 108.274 85.9497 99.1656 97.9237C89.1167 111.132 76.731 122.64 62.7896 131.673C59.5989 133.761 56.7193 133.918 53.2174 131.673C39.1966 122.64 26.8109 111.132 16.8481 97.9237C7.73263 85.9497 2.20508 71.8224 2.20508 56.6053ZM39.5865 58.3056C39.5865 68.4218 47.8414 76.3783 57.9631 76.3783C68.0914 76.3783 76.4258 68.4218 76.4258 58.3056C76.4258 48.2681 68.0914 39.9244 57.9631 39.9244C47.8414 39.9244 39.5865 48.2681 39.5865 58.3056Z" fill="#EB8E3E"/>
<path d="M99.1656 97.9237L100.757 99.1347L100.757 99.1346L99.1656 97.9237ZM62.7896 131.673L61.7021 129.994L61.6947 129.999L62.7896 131.673ZM53.2174 131.673L52.1342 133.354L52.138 133.357L53.2174 131.673ZM16.8481 97.9237L18.4448 96.7193L18.4395 96.7123L16.8481 97.9237ZM57.9638 0C26.3822 0 0.205078 25.2567 0.205078 56.6053H4.20508C4.20508 27.5586 28.4974 4 57.9638 4V0ZM115.809 56.6053C115.809 25.2547 89.6294 0 57.9638 0V4C87.5183 4 111.809 27.5606 111.809 56.6053H115.809ZM100.757 99.1346C110.089 86.8677 115.809 72.3245 115.809 56.6053H111.809C111.809 71.3202 106.46 85.0316 97.5738 96.7128L100.757 99.1346ZM63.8772 133.351C78.0134 124.192 90.5693 112.526 100.757 99.1347L97.5738 96.7127C87.664 109.738 75.4486 121.088 61.7021 129.994L63.8772 133.351ZM52.138 133.357C54.1174 134.626 56.0931 135.324 58.1455 135.298C60.1944 135.272 62.0799 134.527 63.8846 133.347L61.6947 129.999C60.3086 130.906 59.159 131.284 58.0949 131.298C57.0344 131.311 55.8192 130.965 54.2968 129.989L52.138 133.357ZM15.2514 99.1281C25.3564 112.525 37.9161 124.194 52.1342 133.354L54.3006 129.992C40.4772 121.086 28.2655 109.739 18.4448 96.7193L15.2514 99.1281ZM0.205078 56.6053C0.205078 72.324 5.91776 86.8675 15.2568 99.1352L18.4395 96.7123C9.54749 85.0318 4.20508 71.3207 4.20508 56.6053H0.205078ZM57.9631 74.3783C48.9026 74.3783 41.5865 67.2744 41.5865 58.3056H37.5865C37.5865 69.5693 46.7802 78.3783 57.9631 78.3783V74.3783ZM74.4258 58.3056C74.4258 67.2628 67.0421 74.3783 57.9631 74.3783V78.3783C69.1408 78.3783 78.4258 69.5808 78.4258 58.3056H74.4258ZM57.9631 41.9244C66.992 41.9244 74.4258 49.3778 74.4258 58.3056H78.4258C78.4258 47.1585 69.1909 37.9244 57.9631 37.9244V41.9244ZM41.5865 58.3056C41.5865 49.3661 48.9526 41.9244 57.9631 41.9244V37.9244C46.7302 37.9244 37.5865 47.1702 37.5865 58.3056H41.5865Z" fill="white" mask="url(#path-1-outside-1_10_1797)"/>
<circle cx="58.0068" cy="57.9076" r="35.5776" fill="white"/>
<path d="M59.4949 37.2331C58.6712 36.563 57.5532 36.563 56.7295 37.2331L43.7851 47.8214C42.9614 48.4997 42.6157 49.6908 42.932 50.7828C43.2482 51.8747 44.1455 52.6109 45.1678 52.6109H46.3446V58.6495C46.4696 58.7323 46.5873 58.815 46.705 58.906C48.0288 59.9317 49.6542 60.5852 51.059 60.5852C52.6108 60.5852 54.148 59.8821 55.413 58.906C57.0384 57.6238 59.2081 57.6238 60.8335 58.906C62.1867 59.9565 63.7459 60.5852 65.1875 60.5852C66.5849 60.5852 68.2176 59.9317 69.5415 58.906C69.6518 58.8233 69.7621 58.7405 69.8724 58.6661L69.8504 52.6109H71.0713C72.0936 52.6109 72.9909 51.8747 73.3071 50.7828C73.6234 49.6908 73.2777 48.4997 72.454 47.8214L59.5096 37.2331H59.4949ZM56.7516 62.3637C55.0967 63.6459 53.0742 64.5227 51.0516 64.5227C49.0732 64.5227 46.9845 63.6293 45.3591 62.3637C44.4838 61.6606 43.2924 61.7185 42.476 62.5043C41.4169 63.4887 40.0857 64.2415 38.7545 64.5889C37.4895 64.9198 36.7025 66.3426 36.9967 67.7654C37.2909 69.1882 38.5559 70.0733 39.8209 69.7424C41.6228 69.2709 43.1232 68.3775 44.1014 67.6744C46.2343 68.9649 48.6246 69.8169 51.0516 69.8169C53.3978 69.8169 55.5086 68.9979 56.9649 68.2535C57.3914 68.0301 57.7812 67.815 58.1122 67.6165C58.4432 67.815 58.8256 68.0384 59.2595 68.2535C60.7158 68.9979 62.8266 69.8169 65.1728 69.8169C67.5998 69.8169 69.9901 68.9649 72.123 67.6827C73.1085 68.3775 74.6015 69.2792 76.4035 69.7507C77.6685 70.0816 78.9335 69.1965 79.2277 67.7737C79.5219 66.3509 78.7349 64.9281 77.4699 64.5972C76.1387 64.2498 74.8075 63.497 73.7484 62.5126C72.932 61.7268 71.7405 61.6771 70.8653 62.372C69.2473 63.6293 67.1512 64.5227 65.1728 64.5227C63.1502 64.5227 61.1276 63.6459 59.4728 62.3637C58.6564 61.7102 57.5679 61.7102 56.7516 62.3637ZM65.1728 73.7875C63.1502 73.7875 61.1276 72.9106 59.4728 71.6285C58.6564 70.975 57.5679 70.975 56.7516 71.6285C55.0967 72.9106 53.0742 73.7875 51.0516 73.7875C49.0732 73.7875 46.9845 72.8941 45.3591 71.6285C44.4838 70.9253 43.2924 70.9832 42.476 71.7691C41.4169 72.7535 40.0857 73.5062 38.7545 73.8537C37.4895 74.1845 36.7025 75.6074 36.9967 77.0302C37.2909 78.453 38.5559 79.3381 39.8209 79.0072C41.6228 78.5357 43.1232 77.6423 44.1014 76.9392C46.2343 78.2296 48.6246 79.0816 51.0516 79.0816C53.3978 79.0816 55.5086 78.2627 56.9649 77.5182C57.3914 77.2949 57.7812 77.0798 58.1122 76.8813C58.4432 77.0798 58.8256 77.3031 59.2595 77.5182C60.7158 78.2627 62.8266 79.0816 65.1728 79.0816C67.5998 79.0816 69.9901 78.2296 72.123 76.9474C73.1085 77.6423 74.6015 78.5439 76.4035 79.0155C77.6685 79.3463 78.9335 78.4612 79.2277 77.0384C79.5219 75.6156 78.7349 74.1928 77.4699 73.8619C76.1387 73.5145 74.8075 72.7617 73.7484 71.7774C72.932 70.9998 71.7405 70.9419 70.8653 71.6367C69.2473 72.8941 67.1512 73.7875 65.1728 73.7875Z" fill="#EB8E3E"/>
</svg>
