<svg width="400" height="240" viewBox="0 0 400 240" fill="none" xmlns="http://www.w3.org/2000/svg">
  <rect width="400" height="240" rx="12" fill="#F8FAFC"/>
  <!-- Blob 1 -->
  <circle cx="360" cy="40" r="80" fill="#DBEAFE" opacity="0.6"/>
  <!-- Blob 2 -->
  <circle cx="40" cy="200" r="60" fill="#FEF08A" opacity="0.6"/>
  
  <!-- Nav -->
  <rect x="24" y="20" width="80" height="12" rx="6" fill="#334155"/>
  <rect x="250" y="20" width="30" height="8" rx="4" fill="#94A3B8"/>
  <rect x="290" y="20" width="30" height="8" rx="4" fill="#94A3B8"/>
  <rect x="330" y="16" width="46" height="16" rx="8" fill="#3B82F6"/>
  
  <!-- Hero -->
  <rect x="24" y="60" width="60" height="14" rx="7" fill="#3B82F6" opacity="0.2"/>
  <rect x="24" y="86" width="160" height="24" rx="8" fill="#0F172A"/>
  <rect x="24" y="120" width="120" height="24" rx="8" fill="#0F172A"/>
  
  <rect x="24" y="160" width="200" height="8" rx="4" fill="#64748B"/>
  <rect x="24" y="176" width="180" height="8" rx="4" fill="#64748B"/>
  
  <rect x="24" y="200" width="80" height="24" rx="12" fill="#3B82F6"/>
  <rect x="112" y="200" width="80" height="24" rx="12" fill="transparent" stroke="#3B82F6" stroke-width="2"/>
  
  <!-- Hero Image Area -->
  <path d="M260 80C260 80 320 60 360 80C360 80 380 140 360 180C340 220 280 220 260 200C240 180 240 120 260 80Z" fill="#CBD5E1"/>
</svg>
