<svg width="400" height="240" viewBox="0 0 400 240" fill="none" xmlns="http://www.w3.org/2000/svg">
  <rect width="400" height="240" rx="12" fill="#0F172A"/>
  
  <!-- Glows -->
  <circle cx="100" cy="100" r="120" fill="#3B82F6" opacity="0.2" filter="blur(20px)"/>
  <circle cx="350" cy="180" r="100" fill="#8B5CF6" opacity="0.2" filter="blur(20px)"/>
  
  <!-- Nav -->
  <rect x="24" y="24" width="80" height="12" rx="4" fill="#FFFFFF"/>
  <rect x="250" y="26" width="30" height="8" rx="4" fill="#94A3B8"/>
  <rect x="290" y="26" width="30" height="8" rx="4" fill="#94A3B8"/>
  <rect x="330" y="22" width="46" height="16" rx="4" fill="#3B82F6"/>
  
  <!-- Content Centered -->
  <rect x="160" y="60" width="80" height="12" rx="6" fill="transparent" stroke="#3B82F6" stroke-width="1"/>
  <circle cx="166" cy="66" r="3" fill="#3B82F6"/>
  <rect x="174" y="64" width="56" height="4" rx="2" fill="#3B82F6"/>
  
  <rect x="100" y="88" width="200" height="24" rx="4" fill="#FFFFFF"/>
  <rect x="140" y="120" width="120" height="24" rx="4" fill="#FFFFFF"/>
  
  <rect x="120" y="160" width="160" height="6" rx="3" fill="#94A3B8"/>
  
  <rect x="140" y="184" width="56" height="20" rx="4" fill="#3B82F6"/>
  <rect x="204" y="184" width="56" height="20" rx="4" fill="transparent" stroke="#FFFFFF" stroke-width="1" stroke-opacity="0.2"/>
  
  <!-- Glass Panel overlay -->
  <rect x="40" y="210" width="320" height="40" rx="8" fill="#1E293B" opacity="0.6" stroke="#334155" stroke-width="1"/>
</svg>
