<svg width="600" height="400" viewBox="0 0 600 400" fill="none" xmlns="http://www.w3.org/2000/svg">
  <!-- Background -->
  <rect width="600" height="400" fill="#0f172a"/>
  
  <!-- Navbar -->
  <rect x="0" y="0" width="600" height="50" fill="#1e293b"/>
  <rect x="20" y="15" width="120" height="20" rx="4" fill="#38bdf8"/>
  <rect x="340" y="20" width="50" height="10" rx="5" fill="#94a3b8"/>
  <rect x="410" y="20" width="50" height="10" rx="5" fill="#94a3b8"/>
  <rect x="480" y="15" width="100" height="20" rx="4" fill="#0ea5e9"/>

  <!-- Hero Section -->
  <rect x="100" y="100" width="400" height="40" rx="4" fill="#f8fafc"/>
  <rect x="150" y="150" width="300" height="16" rx="4" fill="#94a3b8"/>
  <rect x="200" y="174" width="200" height="16" rx="4" fill="#94a3b8"/>
  <rect x="240" y="220" width="120" height="32" rx="4" fill="#0ea5e9"/>

  <!-- Content Section -->
  <rect x="40" y="300" width="160" height="80" rx="8" fill="#1e293b"/>
  <rect x="60" y="320" width="80" height="12" rx="4" fill="#f8fafc"/>
  <rect x="60" y="340" width="100" height="8" rx="4" fill="#64748b"/>

  <rect x="220" y="300" width="160" height="80" rx="8" fill="#1e293b"/>
  <rect x="240" y="320" width="80" height="12" rx="4" fill="#f8fafc"/>
  <rect x="240" y="340" width="100" height="8" rx="4" fill="#64748b"/>

  <rect x="400" y="300" width="160" height="80" rx="8" fill="#1e293b"/>
  <rect x="420" y="320" width="80" height="12" rx="4" fill="#f8fafc"/>
  <rect x="420" y="340" width="100" height="8" rx="4" fill="#64748b"/>
</svg>
