<svg width="400" height="240" viewBox="0 0 400 240" fill="none" xmlns="http://www.w3.org/2000/svg">
  <rect width="400" height="240" rx="12" fill="#FFFFFF"/>
  <rect x="0" y="0" width="400" height="240" rx="12" stroke="#E2E8F0" stroke-width="2"/>
  
  <!-- Nav -->
  <rect x="24" y="24" width="80" height="12" fill="#111827"/>
  <rect x="250" y="26" width="30" height="8" fill="#6B7280"/>
  <rect x="290" y="26" width="30" height="8" fill="#6B7280"/>
  <rect x="330" y="22" width="46" height="16" fill="#111827"/>
  
  <line x1="24" y1="52" x2="376" y2="52" stroke="#E5E7EB" stroke-width="1"/>
  
  <!-- Hero -->
  <line x1="24" y1="80" x2="40" y2="80" stroke="#9CA3AF" stroke-width="2"/>
  <rect x="48" y="78" width="60" height="6" fill="#6B7280"/>
  
  <rect x="24" y="96" width="140" height="20" fill="#111827"/>
  <rect x="24" y="124" width="180" height="20" fill="#111827"/>
  
  <rect x="24" y="160" width="160" height="6" fill="#6B7280"/>
  <rect x="24" y="172" width="140" height="6" fill="#6B7280"/>
  
  <rect x="24" y="196" width="70" height="24" fill="#111827"/>
  <rect x="102" y="196" width="70" height="24" fill="transparent" stroke="#111827" stroke-width="1"/>
  
  <!-- Hero Image -->
  <rect x="250" y="80" width="126" height="140" fill="#E5E7EB"/>
  <rect x="254" y="84" width="118" height="132" fill="transparent" stroke="#9CA3AF" stroke-width="1"/>
</svg>
